<svg id="Layer_1" data-name="Layer 1" xmlns="http://www.w3.org/2000/svg" viewBox="0 0 113 110.21"><defs><style>.cls-1,.cls-2{fill:#fff;}.cls-1{fill-rule:evenodd;}</style></defs><title>github</title><path class="cls-1" d="M59.92,1.85A56.51,56.51,0,0,0,42.06,112c2.82.52,3.86-1.23,3.86-2.72s-.05-5.8-.08-10.52c-15.71,3.42-19-6.67-19-6.67-2.57-6.53-6.27-8.26-6.27-8.26-5.13-3.51.38-3.44.38-3.44,5.67.4,8.66,5.83,8.66,5.83,5,8.63,13.22,6.14,16.44,4.69a12.06,12.06,0,0,1,3.59-7.55C37.06,81.9,23.87,77.05,23.87,55.4a21.89,21.89,0,0,1,5.82-15.16c-.59-1.43-2.52-7.17.55-15,0,0,4.74-1.52,15.54,5.79a53.64,53.64,0,0,1,28.3,0c10.78-7.31,15.52-5.79,15.52-5.79,3.07,7.78,1.14,13.52.55,15A21.8,21.8,0,0,1,96,55.4c0,21.7-13.22,26.48-25.8,27.88C72.19,85,74,88.47,74,93.74c0,7.56-.06,13.65-.06,15.51,0,1.5,1,3.27,3.88,2.71A56.51,56.51,0,0,0,59.92,1.85Z" transform="translate(-3.42 -1.85)"/><path class="cls-2" d="M24.82,83c-.12.28-.57.36-1,.17s-.64-.57-.5-.85.56-.37,1-.18.64.57.5.86Zm-.69-.52" transform="translate(-3.42 -1.85)"/><path class="cls-2" d="M27.11,85.53c-.27.25-.8.13-1.15-.26s-.44-.92-.17-1.18.79-.13,1.16.27.44.92.16,1.17ZM26.57,85" transform="translate(-3.42 -1.85)"/><path class="cls-2" d="M29.34,88.78c-.35.24-.91,0-1.26-.48s-.35-1.11,0-1.35.91,0,1.27.47.34,1.12,0,1.36Zm0,0" transform="translate(-3.42 -1.85)"/><path class="cls-2" d="M32.39,91.93c-.31.34-1,.25-1.45-.22a1.08,1.08,0,0,1-.32-1.44c.31-.35,1-.25,1.46.21s.64,1.11.31,1.45Zm0,0" transform="translate(-3.42 -1.85)"/><path class="cls-2" d="M36.6,93.75c-.14.44-.77.65-1.41.46s-1.06-.71-.93-1.16.77-.66,1.42-.46,1,.71.92,1.16Zm0,0" transform="translate(-3.42 -1.85)"/><path class="cls-2" d="M41.22,94.09c0,.47-.52.85-1.19.86s-1.23-.36-1.23-.82.53-.85,1.2-.86,1.22.36,1.22.82Zm0,0" transform="translate(-3.42 -1.85)"/><path class="cls-2" d="M45.53,93.36c.08.45-.39.92-1.06,1s-1.26-.16-1.34-.61.39-.93,1-1.05,1.26.16,1.35.62Zm0,0" transform="translate(-3.42 -1.85)"/></svg>