<?xml version="1.0" encoding="utf-8"?>
<!-- Generator: Adobe Illustrator 22.1.0, SVG Export Plug-In . SVG Version: 6.00 Build 0)  -->
<svg version="1.1" id="Capa_1" xmlns="http://www.w3.org/2000/svg" xmlns:xlink="http://www.w3.org/1999/xlink" x="0px" y="0px"
	 viewBox="0 0 457 457" style="enable-background:new 0 0 457 457;" xml:space="preserve">
<style type="text/css">
	.st0{fill:#FFFFFF;}
</style>
<g>
	<path class="st0" d="M421.5,207.1l-85.8,85.8c-47.4,47.4-124.2,47.4-171.5,0c-7.5-7.4-13.3-15.8-18.4-24.5l39.9-39.9
		c1.9-1.9,4.2-3,6.5-4.3c2.8,9.4,7.6,18.3,15,25.7c23.6,23.7,62.1,23.6,85.8,0l85.8-85.8c23.7-23.7,23.7-62.1,0-85.8
		c-23.6-23.6-62.1-23.6-85.8,0l-30.5,30.5c-24.8-9.6-51.4-12.2-77.4-8.4l65-65c47.4-47.4,124.2-47.4,171.6,0
		C468.9,82.9,468.9,159.7,421.5,207.1z M194.7,348.1l-30.5,30.5c-23.6,23.6-62.1,23.6-85.8,0c-23.6-23.7-23.6-62.1,0-85.8l85.8-85.8
		c23.7-23.7,62.1-23.7,85.8,0c7.4,7.4,12.2,16.3,15,25.7c2.2-1.3,4.6-2.4,6.5-4.3l39.9-39.8c-5.1-8.7-11-17-18.4-24.5
		c-47.3-47.4-124.2-47.4-171.5,0L35.5,250c-47.4,47.4-47.4,124.2,0,171.6c47.4,47.4,124.2,47.4,171.5,0l65-65
		C246.1,360.3,219.4,357.7,194.7,348.1z"/>
</g>
</svg>
